<?xml version="1.0" standalone="no"?>
<!DOCTYPE svg PUBLIC "-//W3C//DTD SVG 20010904//EN"
 "http://www.w3.org/TR/2001/REC-SVG-20010904/DTD/svg10.dtd">
<svg version="1.0" xmlns="http://www.w3.org/2000/svg"
 width="260.000000pt" height="260.000000pt" viewBox="0 0 260.000000 260.000000"
 preserveAspectRatio="xMidYMid meet">
<metadata>
Created by potrace 1.11, written by Peter Selinger 2001-2013
</metadata>
<g transform="translate(0.000000,260.000000) scale(0.100000,-0.100000)"
fill="#000000" stroke="none">
<path d="M1023 2580 c-246 -53 -466 -173 -644 -350 -150 -149 -247 -303 -317
-502 -49 -138 -62 -228 -62 -429 0 -210 17 -311 81 -476 149 -383 486 -681
886 -785 210 -54 487 -51 692 8 451 131 786 478 908 943 35 133 44 394 18 538
-79 443 -382 821 -786 982 -177 71 -245 83 -474 87 -181 3 -223 1 -302 -16z
m686 -767 c0 -10 -132 -211 -293 -448 l-292 -430 288 -3 288 -2 0 -55 0 -55
-380 0 c-337 0 -380 2 -380 16 0 8 131 208 290 444 160 236 290 431 290 434 0
3 -119 6 -265 6 l-265 0 0 55 0 55 360 0 c336 0 360 -1 359 -17z"/>
</g>
</svg>
